<svg width="30" height="30" viewBox="0 0 30 30" fill="none" xmlns="http://www.w3.org/2000/svg">
<g clip-path="url(#clip0_179_121)">
<path d="M2.5 19C2.5 20.35 3.0375 21.6125 3.9625 22.5375C3.825 23.0125 3.75 23.5 3.75 24C3.75 26.45 5.5125 28.4875 7.8875 28.9125C8.575 30.45 10.1375 31.5 11.875 31.5C12.55 31.5 13.175 31.3375 13.75 31.0625V6.725C13.3625 6.5875 12.9375 6.5 12.5 6.5C10.875 6.5 9.4875 7.5375 8.9625 9.0125C7.87832 9.11802 6.87215 9.62307 6.13975 10.4294C5.40735 11.2357 5.00108 12.2857 5 13.375C5 13.7875 5.0625 14.1875 5.175 14.575C3.5875 15.425 2.5 17.1125 2.5 19ZM24.825 14.575C24.9375 14.1875 25 13.775 25 13.375C25 11.1 23.2625 9.225 21.0375 9.025C20.7815 8.2899 20.3038 7.65229 19.6702 7.20006C19.0366 6.74784 18.2784 6.50324 17.5 6.5C17.0625 6.5 16.6375 6.5875 16.25 6.725V31.0625C16.825 31.3375 17.45 31.5 18.125 31.5C19.8625 31.5 21.4125 30.4625 22.1125 28.925C23.2707 28.7207 24.3201 28.1152 25.0766 27.2147C25.8331 26.3142 26.2485 25.1761 26.25 24C26.25 23.5 26.175 23.0125 26.0375 22.5375C26.975 21.6 27.5 20.3375 27.5 19C27.5 17.125 26.425 15.425 24.825 14.575Z" fill="white"/>
</g>
<defs>
<clipPath id="clip0_179_121">
<rect width="30" height="30" fill="white"/>
</clipPath>
</defs>
</svg>
