<svg width="23" height="29" viewBox="0 0 23 29" fill="none" xmlns="http://www.w3.org/2000/svg">
<path d="M11.3333 19.8333C13.7417 17.6611 15.2882 16.1321 15.9729 15.2462C16.6576 14.3603 17 13.481 17 12.6083C17 11.7583 16.6931 11.0264 16.0792 10.4125C15.4653 9.79861 14.7333 9.49167 13.8833 9.49167C13.3875 9.49167 12.9091 9.59178 12.4482 9.792C11.9874 9.99222 11.6157 10.2699 11.3333 10.625C11.05 10.2708 10.684 9.99364 10.2354 9.79342C9.78681 9.59319 9.30278 9.49261 8.78333 9.49167C7.93333 9.49167 7.20139 9.79861 6.5875 10.4125C5.97361 11.0264 5.66667 11.7583 5.66667 12.6083C5.66667 13.0569 5.72569 13.4701 5.84375 13.8479C5.96181 14.2257 6.22153 14.6686 6.62292 15.1768C7.02431 15.6849 7.59664 16.3044 8.33992 17.0354C9.08319 17.7664 10.081 18.6991 11.3333 19.8333ZM11.3333 28.3333C8.05139 27.5069 5.34178 25.6237 3.2045 22.6837C1.06722 19.7436 -0.000943819 16.4796 6.25736e-07 12.8917V4.25L11.3333 0L22.6667 4.25V12.8917C22.6667 16.4806 21.5985 19.745 19.4622 22.6851C17.3258 25.6251 14.6162 27.5079 11.3333 28.3333Z" fill="white"/>
</svg>
