<svg width="30" height="30" viewBox="0 0 30 30" fill="none" xmlns="http://www.w3.org/2000/svg">
<path fill-rule="evenodd" clip-rule="evenodd" d="M20.8379 16.4126C22.5504 17.5751 23.7504 19.1501 23.7504 21.2501V25.0001H28.7504V21.2501C28.7504 18.5251 24.2879 16.9126 20.8379 16.4126Z" fill="white"/>
<path d="M11.25 15C14.0114 15 16.25 12.7614 16.25 10C16.25 7.23858 14.0114 5 11.25 5C8.48858 5 6.25 7.23858 6.25 10C6.25 12.7614 8.48858 15 11.25 15Z" fill="white"/>
<path fill-rule="evenodd" clip-rule="evenodd" d="M18.75 15C21.5125 15 23.75 12.7625 23.75 10C23.75 7.2375 21.5125 5 18.75 5C18.1625 5 17.6125 5.125 17.0875 5.3C18.1632 6.63027 18.75 8.28925 18.75 10C18.75 11.7107 18.1632 13.3697 17.0875 14.7C17.6125 14.875 18.1625 15 18.75 15ZM11.25 16.25C7.9125 16.25 1.25 17.925 1.25 21.25V25H21.25V21.25C21.25 17.925 14.5875 16.25 11.25 16.25Z" fill="white"/>
</svg>
