<svg width="25" height="25" viewBox="0 0 25 25" fill="none" xmlns="http://www.w3.org/2000/svg">
<path d="M13.375 15.0625L20.4375 8L18.6875 6.1875L13.375 11.5L10.6875 8.875L8.9375 10.625L13.375 15.0625ZM7.5 20C6.8125 20 6.22417 19.7554 5.735 19.2663C5.24583 18.7771 5.00083 18.1883 5 17.5V2.5C5 1.8125 5.245 1.22417 5.735 0.735C6.225 0.245833 6.81333 0.000833333 7.5 0H22.5C23.1875 0 23.7763 0.245 24.2663 0.735C24.7563 1.225 25.0008 1.81333 25 2.5V17.5C25 18.1875 24.7554 18.7763 24.2663 19.2663C23.7771 19.7563 23.1883 20.0008 22.5 20H7.5ZM2.5 25C1.8125 25 1.22417 24.7554 0.735 24.2663C0.245833 23.7771 0.000833333 23.1883 0 22.5V5H2.5V22.5H20V25H2.5Z" fill="white"/>
</svg>
